<svg width="14" height="14" viewBox="0 0 14 14" fill="none" xmlns="http://www.w3.org/2000/svg">
<path d="M13.4401 13.3984C12.6198 13.3789 11.819 13.3789 10.9987 13.3984C10.8229 13.3984 10.7839 13.3594 10.7839 13.1836C10.7839 11.7383 10.7839 10.2734 10.7839 8.82812C10.7839 8.49609 10.7643 8.16406 10.6667 7.85156C10.3737 6.83594 9.20184 6.46484 8.362 7.14844C7.91278 7.5 7.737 7.98828 7.737 8.57422C7.737 9.94141 7.737 11.3086 7.737 12.6758C7.737 12.8516 7.71747 13.0273 7.737 13.2227C7.75653 13.3789 7.67841 13.418 7.54169 13.3984C6.70184 13.3984 5.88153 13.3984 5.04169 13.3984C4.88544 13.3984 4.84637 13.3594 4.84637 13.2031C4.86591 11.9727 4.86591 10.7422 4.86591 9.49219C4.86591 7.96875 4.86591 6.44531 4.84637 4.94141C4.84637 4.76563 4.88544 4.72656 5.04169 4.72656C5.88153 4.72656 6.70184 4.72656 7.54169 4.72656C7.69794 4.72656 7.737 4.76563 7.737 4.92187C7.737 5.23437 7.737 5.54687 7.737 5.91797C7.79559 5.85937 7.81512 5.83984 7.83466 5.82031C8.59637 4.70703 9.67059 4.39453 10.9401 4.58984C12.405 4.82422 13.3425 5.83984 13.5768 7.40234C13.6354 7.77344 13.655 8.14453 13.655 8.51562C13.655 10.0781 13.655 11.6211 13.655 13.1836C13.655 13.3398 13.6159 13.3984 13.4401 13.3984Z" fill="white"/>
<path d="M3.28387 9.0625C3.28387 10.4297 3.28387 11.7969 3.28387 13.1641C3.28387 13.3398 3.24481 13.3984 3.06903 13.3984C2.24872 13.3789 1.42841 13.3984 0.608093 13.3984C0.451843 13.3984 0.412781 13.3594 0.412781 13.2031C0.412781 10.4492 0.412781 7.67578 0.412781 4.92187C0.412781 4.78516 0.451843 4.72656 0.608093 4.72656C1.44794 4.72656 2.28778 4.72656 3.12762 4.72656C3.30341 4.72656 3.32294 4.78516 3.32294 4.94141C3.28387 6.30859 3.28387 7.67578 3.28387 9.0625Z" fill="white"/>
<path d="M3.42059 2.46095C3.22527 3.2422 2.42449 3.69142 1.50652 3.53517C0.52996 3.37892 -0.0169148 2.42189 0.334648 1.48439C0.569023 0.898448 1.13543 0.546886 1.85809 0.566417C2.95184 0.546886 3.67449 1.42579 3.42059 2.46095Z" fill="white"/>
</svg>
