<svg width="15" height="13" viewBox="0 0 15 13" fill="none" xmlns="http://www.w3.org/2000/svg">
<path fill-rule="evenodd" clip-rule="evenodd" d="M11.2789 12.6897C12.1526 13.072 12.4802 12.2711 12.4802 12.2711L14.7919 0.658109C14.7737 -0.124584 13.718 0.348672 13.718 0.348672L0.776236 5.42707C0.776236 5.42707 0.157363 5.6455 0.211969 6.02774C0.266576 6.40999 0.758034 6.59201 0.758034 6.59201L4.01622 7.68414C4.01622 7.68414 4.99913 10.9059 5.19936 11.5248C5.38138 12.1255 5.5452 12.1437 5.5452 12.1437C5.72722 12.2165 5.89104 12.0891 5.89104 12.0891L8.00249 10.1778L11.2789 12.6897ZM11.8432 2.71494C11.8432 2.71494 12.2982 2.44191 12.28 2.71494C12.28 2.71494 12.3528 2.75135 12.1162 3.00618C11.8978 3.2246 6.74657 7.84795 6.05489 8.46682C6.00028 8.50323 5.96388 8.55783 5.96388 8.63064L5.76365 10.3416C5.72725 10.5237 5.49062 10.5419 5.43601 10.378L4.58051 7.57492C4.54411 7.4657 4.58051 7.33829 4.68973 7.26548L11.8432 2.71494Z" fill="white"/>
</svg>
