<svg width="15" height="13" viewBox="0 0 15 13" fill="none" xmlns="http://www.w3.org/2000/svg">
<path d="M13.3219 3.36997C13.3219 3.51087 13.3219 3.65177 13.3219 3.77254C13.3219 7.93921 10.3059 12.75 4.80855 12.75C3.10971 12.75 1.54448 12.2267 0.208313 11.341C0.437371 11.3611 0.685516 11.3812 0.914574 11.3812C2.30801 11.3812 3.606 10.878 4.63676 10.0326C3.31968 10.0125 2.21257 9.08655 1.84989 7.83857C2.04077 7.87882 2.21257 7.89895 2.42254 7.89895C2.68977 7.89895 2.957 7.8587 3.20515 7.77818C1.8308 7.49638 0.800045 6.22826 0.800045 4.69847C0.800045 4.67834 0.800045 4.67834 0.800045 4.65821C1.2009 4.89976 1.65901 5.04066 2.1553 5.06079C1.3536 4.49718 0.819133 3.531 0.819133 2.42391C0.819133 1.84018 0.971838 1.2967 1.21998 0.833736C2.68977 2.74597 4.90399 3.99396 7.38545 4.13486C7.32819 3.91345 7.3091 3.65177 7.3091 3.41023C7.3091 1.65902 8.64527 0.25 10.3059 0.25C11.1649 0.25 11.9475 0.632448 12.482 1.23631C13.1692 1.09541 13.7991 0.833736 14.3908 0.471417C14.1617 1.21618 13.6845 1.82005 13.0737 2.22262C13.6845 2.14211 14.2572 1.98108 14.7916 1.7194C14.4099 2.36353 13.9136 2.92713 13.3219 3.36997Z" fill="white"/>
</svg>
