<svg width="20" height="20" viewBox="0 0 20 20" fill="none" xmlns="http://www.w3.org/2000/svg">
<path d="M8.3754 15.9112C7.23266 15.9112 6.30489 16.8273 6.30489 17.9556C6.31621 19.0839 7.24397 20 8.3754 20C9.50682 20 10.4459 19.0839 10.4459 17.9556C10.4459 16.8273 9.51814 15.9112 8.3754 15.9112ZM8.3754 18.6371C7.99071 18.6371 7.68523 18.3354 7.68523 17.9556C7.68523 17.5758 7.99071 17.2741 8.3754 17.2741C8.76008 17.2741 9.06557 17.5758 9.06557 17.9556C9.06557 18.3354 8.76008 18.6371 8.3754 18.6371ZM17.2571 15.9112C16.1143 15.9112 15.1866 16.8273 15.1866 17.9556C15.1866 19.0839 16.1143 20 17.2571 20C18.3998 20 19.3276 19.0839 19.3276 17.9556C19.3276 16.8273 18.3998 15.9112 17.2571 15.9112ZM17.2571 18.6371C16.8724 18.6371 16.5669 18.3354 16.5669 17.9556C16.5669 17.5758 16.8724 17.2741 17.2571 17.2741C17.6418 17.2741 17.9472 17.5758 17.9472 17.9556C17.9472 18.3354 17.6304 18.6371 17.2571 18.6371ZM8.89585 12.3921L18.5243 11.409C18.8411 11.3755 19.1013 11.1297 19.1352 10.8169L19.9951 4.20335C20.0177 4.01343 19.9612 3.82352 19.8367 3.67828C19.7123 3.53305 19.5312 3.44368 19.3389 3.44368L5.5921 2.99682L4.65301 0.751324C4.55119 0.51672 4.33621 0.360318 4.0873 0.337974L0.760916 0.00282635C0.376232 -0.0306885 0.0481194 0.23743 0.00286244 0.617265C-0.0310803 0.985928 0.240461 1.32108 0.625145 1.36576L3.54422 1.65622L7.76443 11.6213L7.14215 12.3028C7.14215 12.3028 7.14215 12.3028 7.13083 12.3139C6.83666 12.6491 5.94284 13.6545 6.37278 14.6041C6.76878 15.4643 7.96808 15.4978 8.10386 15.4978H18.7279C19.1126 15.4978 19.4181 15.1962 19.4181 14.8164C19.4181 14.4365 19.1126 14.1349 18.7279 14.1349H8.10386C7.96808 14.1349 7.7418 14.0902 7.63997 14.0344C7.65129 13.945 7.7418 13.6992 8.16043 13.2188L8.89585 12.3921ZM6.18044 4.37092L18.5356 4.7731L17.8454 10.1131L8.99768 11.018L6.18044 4.37092Z" fill="#FFEA00"/>
</svg>
