<svg width="13" height="13" viewBox="0 0 13 13" fill="none" xmlns="http://www.w3.org/2000/svg">
<path d="M11.0461 0.639342V1.36778V2.36458C11.0461 2.91666 10.6094 3.36139 10.0674 3.36139H8.10247C7.56042 3.36139 7.12377 2.91666 7.12377 2.36458V1.36778V0.370972H5.15884V1.36778V2.36458C5.15884 2.91666 4.72219 3.36139 4.18014 3.36139H2.21521C1.67316 3.36139 1.23651 2.91666 1.23651 2.36458V1.36778V0.639342C0.649292 0.98439 0.257812 1.62848 0.257812 2.37225V10.3697C0.257812 11.4738 1.13864 12.371 2.22274 12.371H10.0674C11.1515 12.371 12.0323 11.4738 12.0323 10.3697V2.36458C12.0248 1.62848 11.6333 0.98439 11.0461 0.639342ZM10.0599 9.36522C10.0599 9.9173 9.62321 10.362 9.08117 10.362H3.19391C2.65186 10.362 2.21521 9.9173 2.21521 9.36522V6.36714C2.21521 5.81506 2.65186 5.37033 3.19391 5.37033H9.08117C9.62321 5.37033 10.0599 5.81506 10.0599 6.36714V9.36522ZM10.0599 1.36778V0.370972H8.09494V1.36778V2.36458H10.0599V1.36778ZM4.17261 1.36778V0.370972H2.20768V1.36778V2.36458H4.17261V1.36778Z" fill="#C5C3C2"/>
</svg>
