<svg width="12" height="13" viewBox="0 0 12 13" fill="none" xmlns="http://www.w3.org/2000/svg">
<path fill-rule="evenodd" clip-rule="evenodd" d="M12 5.18824C12 2.32218 9.822 0 7.128 0H4.878C2.184 0 0 2.32218 0 5.18824C0 8.0543 2.184 10.3765 4.878 10.3765H6.408L9.132 12.2281V9.91815C10.824 9.09928 12 7.29042 12 5.18824ZM7.062 8.48207H4.968C3.234 8.48207 1.824 7.0032 1.824 5.17602C1.824 3.34883 3.234 1.86997 4.968 1.86997H7.062C8.796 1.86997 10.206 3.34883 10.206 5.17602C10.206 7.0032 8.802 8.48207 7.062 8.48207Z" fill="#C5C3C2"/>
</svg>
