<svg width="9" height="12" viewBox="0 0 9 12" fill="none" xmlns="http://www.w3.org/2000/svg">
<path d="M4.45329 0.000187151C2.00173 -0.0221141 0 1.95155 0 4.38238C0 8.88723 3.0026 11.2177 4.05969 11.8979C4.27336 12.0429 4.56575 12.0317 4.76817 11.8756C5.78028 11.1174 8.70416 8.59732 8.83911 4.68345C8.92907 2.17456 6.98357 0.0224884 4.45329 0.000187151ZM4.31834 7.73872C2.54152 7.73872 1.09083 6.31144 1.09083 4.53849C1.09083 2.76554 2.53028 1.33826 4.31834 1.33826C6.10641 1.33826 7.54585 2.76554 7.54585 4.53849C7.54585 6.31144 6.10641 7.73872 4.31834 7.73872Z" fill="#C5C3C2"/>
</svg>
