<svg width="99" height="70">
<path d="M25.984 0L6.01375 29.2179C1.99986 35.4646 0 41.797 0 48.2295C0 54.662 2.14169 59.8938 6.42507 63.9391C10.7085 67.9845 16.084 70 22.5658 70C29.0334 70 34.4089 67.8844 38.7064 63.6676C42.9898 59.4364 45.1315 53.7043 45.1315 46.4427C45.1315 39.1811 42.1246 33.5348 36.1109 29.4895L48.4079 0H25.984ZM86.6888 29.4895L99 0H76.5761L56.6059 29.2179C52.592 35.4646 50.5921 41.8113 50.5921 48.2295C50.5921 54.662 52.7338 59.8938 57.0172 63.9391C61.3006 67.9845 66.6761 70 73.1579 70C79.6255 70 85.001 67.8844 89.2986 63.6676C93.5819 59.4364 95.7236 53.7043 95.7236 46.4427C95.7095 39.1811 92.7026 33.5348 86.6888 29.4895Z" fill="#010202"/>
</svg>
